<?xml version="1.0" encoding="iso-8859-1"?>
<!-- Generator: Adobe Illustrator 19.0.0, SVG Export Plug-In . SVG Version: 6.00 Build 0)  -->
<svg version="1.1" id="Capa_1" xmlns="http://www.w3.org/2000/svg" xmlns:xlink="http://www.w3.org/1999/xlink" x="0px" y="0px"
	 viewBox="0 0 512.001 512.001" style="enable-background:new 0 0 512.001 512.001;" xml:space="preserve">
<g>
	<g>
		<path d="M506.481,98.722c-6.498-22.142-18.21-41.787-34.812-58.389c-16.602-16.602-36.247-28.315-58.39-34.812
			c-20.734-6.083-43.026-7.162-64.465-3.117c-21.437,4.045-41.804,13.172-58.896,26.394c-18.252,14.12-32.277,32.185-41.688,53.695
			l-25.668,58.668l-81.399,81.399l-58.67,25.668c-21.51,9.411-39.575,23.437-53.695,41.689
			C15.575,307.01,6.448,327.377,2.403,348.815c-4.045,21.437-2.967,43.729,3.117,64.464c6.498,22.142,18.21,41.787,34.813,58.389
			c16.601,16.602,36.247,28.315,58.39,34.812c12.513,3.671,25.589,5.52,38.706,5.52c8.62,0,17.258-0.799,25.759-2.403
			c21.438-4.045,41.804-13.172,58.896-26.394c18.252-14.12,32.277-32.185,41.688-53.695l16.716-38.207
			c8.734,4.901,18.149,8.587,28,10.913c8.168,1.928,16.484,2.889,24.791,2.889c11.535,0,23.05-1.853,34.107-5.539l-9.487-28.461
			c-21.288,7.095-43.925,4.704-62.776-5.946l75.716-75.716l58.67-25.668c21.51-9.41,39.575-23.437,53.695-41.689
			c13.222-17.092,22.349-37.459,26.394-58.897C513.644,141.749,512.566,119.457,506.481,98.722z M236.286,417.483
			c-14.483,33.104-43.153,55.933-78.661,62.632c-6.899,1.302-13.777,1.943-20.575,1.942c-28.18-0.002-54.916-11.02-75.502-31.605
			c-25.55-25.55-36.362-60.569-29.662-96.076c6.699-35.508,29.528-64.178,62.633-78.662l44.998-19.687l32.041,32.041l-60.127,26.305
			c-28.583,12.507-36.152,37.612-38.08,47.827c-1.927,10.215-4.026,36.353,18.035,58.415c15.695,15.696,33.452,19.162,46.072,19.162
			c5.119,0,9.396-0.571,12.343-1.127c10.214-1.927,35.319-9.495,47.825-38.082l26.305-60.125l32.042,32.042L236.286,417.483z
			 M194.339,310.85l6.813,6.812l-31.012,70.881c-6.773,15.483-20.37,19.582-25.901,20.626c-5.531,1.042-19.688,2.181-31.639-9.768
			c-11.949-11.949-10.812-26.106-9.768-31.639c1.043-5.531,5.143-19.129,20.624-25.902L194.339,310.85z M271.884,345.967
			l-105.849-105.85l26.435-26.434l80.152,80.152l21.214-21.214l-80.152-80.152l26.435-26.434l105.85,105.85L271.884,345.967z
			 M310.851,194.338l31.012-70.881c6.773-15.483,20.37-19.582,25.901-20.625c1.597-0.301,3.911-0.61,6.685-0.61
			c6.835,0,16.453,1.877,24.953,10.378c11.949,11.949,10.811,26.106,9.768,31.639c-1.043,5.531-5.143,19.129-20.624,25.902
			l-70.882,31.011L310.851,194.338z M480.117,157.624c-6.699,35.508-29.528,64.178-62.633,78.662l-44.998,19.687l-32.041-32.041
			l60.127-26.305c28.583-12.507,36.152-37.612,38.08-47.827c1.927-10.214,4.026-36.353-18.035-58.415
			c-22.062-22.063-48.203-19.963-58.415-18.035c-10.214,1.927-35.319,9.496-47.825,38.082l-26.305,60.125l-32.042-32.042
			l19.686-44.998c14.483-33.105,43.153-55.933,78.661-62.632c6.899-1.302,13.777-1.942,20.575-1.942
			c28.18,0,54.916,11.02,75.502,31.605C476.006,87.098,486.817,122.116,480.117,157.624z"/>
	</g>
</g>
<g>
</g>
<g>
</g>
<g>
</g>
<g>
</g>
<g>
</g>
<g>
</g>
<g>
</g>
<g>
</g>
<g>
</g>
<g>
</g>
<g>
</g>
<g>
</g>
<g>
</g>
<g>
</g>
<g>
</g>
</svg>
