<?xml version="1.0" encoding="iso-8859-1"?>
<!-- Generator: Adobe Illustrator 19.0.0, SVG Export Plug-In . SVG Version: 6.00 Build 0)  -->
<svg version="1.1" id="Capa_1" xmlns="http://www.w3.org/2000/svg" xmlns:xlink="http://www.w3.org/1999/xlink" x="0px" y="0px"
	 viewBox="0 0 512 512" style="enable-background:new 0 0 512 512;" xml:space="preserve">
<g>
	<g>
		<path d="M407,201c-16.811,0-32.709,3.978-46.811,11.032l-27.634-39.915L347.507,131H367v-30h-80v30h28.584l-10.909,30h-135.53
			l16.667-50H115c-24.813,0-45,20.187-45,45v15h30v-15c0-8.271,6.729-15,15-15h29.188l-20.552,61.657
			C117.586,201.569,111.358,201,105,201C47.103,201,0,248.103,0,306c0,57.897,47.103,105,105,105c57.897,0,105-47.103,105-105
			c0-40.976-23.596-76.539-57.912-93.83l7.057-21.17h2.77l91.22,111.736l-10.232,28.138l28.194,10.252l48.893-134.455l15.555,22.469
			C314.924,248.325,302,275.679,302,306c0,57.897,47.103,105,105,105c57.897,0,105-47.103,105-105C512,248.103,464.897,201,407,201z
			 M180,306c0,41.355-33.645,75-75,75s-75-33.645-75-75c0-41.355,33.645-75,75-75c3.048,0,6.048,0.204,9.002,0.559l-25.849,77.549
			l28.46,9.487l25.843-77.53C164.875,254.047,180,278.283,180,306z M265.069,269.916L200.643,191h93.123L265.069,269.916z M407,381
			c-41.355,0-75-33.645-75-75c0-20.095,7.959-38.355,20.871-51.833l47.232,68.223l24.666-17.076L377.51,237.05
			c9.057-3.889,19.025-6.05,29.49-6.05c41.355,0,75,33.645,75,75C482,347.355,448.355,381,407,381z"/>
	</g>
</g>
<g>
</g>
<g>
</g>
<g>
</g>
<g>
</g>
<g>
</g>
<g>
</g>
<g>
</g>
<g>
</g>
<g>
</g>
<g>
</g>
<g>
</g>
<g>
</g>
<g>
</g>
<g>
</g>
<g>
</g>
</svg>
