<?xml version="1.0" encoding="iso-8859-1"?>
<!-- Generator: Adobe Illustrator 19.0.0, SVG Export Plug-In . SVG Version: 6.00 Build 0)  -->
<svg version="1.1" id="Capa_1" xmlns="http://www.w3.org/2000/svg" xmlns:xlink="http://www.w3.org/1999/xlink" x="0px" y="0px"
	 viewBox="0 0 512 512" style="enable-background:new 0 0 512 512;" xml:space="preserve">
<g>
	<g>
		<path d="M452,174.403v-60.048H301.904v96.622h-91.809v-96.622H60v60.048H0v163.195h60v60.048h150.096v-96.622h91.809v96.622H452
			v-60.048h60V174.403H452z M60,307.598H30V204.403h30V307.598z M120.048,367.646H90V144.355h30.048V367.646z M180.096,367.647
			h-30.048V144.355h30.048V367.647z M301.905,271.025h-91.809v-30.048h91.809V271.025z M361.952,367.646h-30.048V144.355h30.048
			V367.646z M422,367.647h-30.048V144.355H422V367.647z M482,307.599h-30V204.403h30V307.599z"/>
	</g>
</g>
<g>
</g>
<g>
</g>
<g>
</g>
<g>
</g>
<g>
</g>
<g>
</g>
<g>
</g>
<g>
</g>
<g>
</g>
<g>
</g>
<g>
</g>
<g>
</g>
<g>
</g>
<g>
</g>
<g>
</g>
</svg>
