<?xml version="1.0" encoding="iso-8859-1"?>
<!-- Generator: Adobe Illustrator 19.0.0, SVG Export Plug-In . SVG Version: 6.00 Build 0)  -->
<svg version="1.1" id="Capa_1" xmlns="http://www.w3.org/2000/svg" xmlns:xlink="http://www.w3.org/1999/xlink" x="0px" y="0px"
	 viewBox="0 0 511.999 511.999" style="enable-background:new 0 0 511.999 511.999;" xml:space="preserve">
<g>
	<g>
		<path d="M159.225,186.971c-30.079,0-54.549,24.471-54.549,54.549c0,30.079,24.471,54.549,54.549,54.549
			c30.078,0,54.549-24.471,54.549-54.549S189.303,186.971,159.225,186.971z M159.225,266.144c-13.578,0-24.624-11.046-24.624-24.624
			c0-13.578,11.046-24.624,24.624-24.624c13.578,0,24.624,11.046,24.624,24.624C183.849,255.098,172.803,266.144,159.225,266.144z"
			/>
	</g>
</g>
<g>
	<g>
		<path d="M352.774,0c-36.652,0-66.47,29.819-66.47,66.47c0,36.651,29.819,66.469,66.47,66.469c36.652,0,66.47-29.819,66.47-66.47
			S389.426,0,352.774,0z M352.774,103.015c-20.151,0-36.545-16.395-36.545-36.545c0-20.15,16.395-36.545,36.545-36.545
			c20.151,0,36.545,16.395,36.545,36.545C389.319,86.621,372.926,103.015,352.774,103.015z"/>
	</g>
</g>
<g>
	<g>
		<path d="M372.297,151.021h-39.046c-46.893,0-85.05,38.12-85.105,85.001l-0.274,21.021l-0.001,0.195
			c0,30.242-24.238,53.932-55.156,53.932l-53.012-0.09c-46.927,0-85.105,38.178-85.105,85.106v21.967h29.925v-21.967
			c0-21.262,12.095-39.74,29.748-48.951l-0.058,164.763h89.781V340.356c18.438-2.36,35.443-10.461,48.742-23.432
			c16.136-15.739,25.032-36.892,25.06-59.579l0.274-21.021l0.001-0.195c0-9.774,2.566-18.956,7.041-26.927l22.132,22.228
			l-25.861,279.827h142.539l-25.798-279.804l22.291-22.285c4.489,7.979,7.061,17.174,7.061,26.962v75.454h29.925v-75.454
			C457.404,189.2,419.225,151.021,372.297,151.021z M174.069,482.076h-29.921v-0.001l0.049-141.061l29.872,0.051V482.076z
			 M367.037,220.215l24.075,261.115h-76.911l24.13-261.092l-32.073-32.212c7.986-4.5,17.192-7.08,26.993-7.08h39.046
			c9.786,0,18.979,2.573,26.958,7.059L367.037,220.215z"/>
	</g>
</g>
<g>
</g>
<g>
</g>
<g>
</g>
<g>
</g>
<g>
</g>
<g>
</g>
<g>
</g>
<g>
</g>
<g>
</g>
<g>
</g>
<g>
</g>
<g>
</g>
<g>
</g>
<g>
</g>
<g>
</g>
</svg>
