<?xml version="1.0" encoding="iso-8859-1"?>
<!-- Generator: Adobe Illustrator 19.0.0, SVG Export Plug-In . SVG Version: 6.00 Build 0)  -->
<svg version="1.1" id="Capa_1" xmlns="http://www.w3.org/2000/svg" xmlns:xlink="http://www.w3.org/1999/xlink" x="0px" y="0px"
	 viewBox="0 0 512 512" style="enable-background:new 0 0 512 512;" xml:space="preserve">
<g>
	<g>
		<path d="M455.639,118.65c16.424-11.929,27.132-31.27,27.132-53.075C482.771,29.416,453.355,0,417.196,0
			c-36.157,0-65.573,29.416-65.573,65.574c0,13.107,3.88,25.317,10.53,35.572h-51.109c6.65-10.255,10.53-22.465,10.53-35.572
			C321.574,29.416,292.158,0,256,0s-65.574,29.416-65.574,65.574c0,13.107,3.88,25.317,10.531,35.572h-51.11
			c6.65-10.255,10.53-22.465,10.53-35.572C160.377,29.416,130.96,0,94.803,0C58.645,0,29.229,29.416,29.229,65.574
			c0,21.806,10.707,41.147,27.131,53.075L0,146.924v189.132h30.025V512h451.948V336.055h30.025v-189.13h0L455.639,118.65z
			 M417.196,30.001c19.615,0,35.573,15.958,35.573,35.573c0,19.602-15.937,35.551-35.535,35.572h-0.077
			c-19.596-0.02-35.533-15.969-35.533-35.572C381.625,45.959,397.582,30.001,417.196,30.001z M256,30.001
			c19.615,0,35.573,15.958,35.573,35.573c0,19.602-15.937,35.551-35.535,35.572h-0.077c-19.597-0.02-35.534-15.969-35.534-35.572
			C220.427,45.959,236.385,30.001,256,30.001z M94.803,30.001c19.615,0,35.573,15.958,35.573,35.573
			c0,19.602-15.937,35.551-35.534,35.572h-0.077c-19.597-0.021-35.534-15.97-35.534-35.572
			C59.23,45.959,75.188,30.001,94.803,30.001z M170.675,481.999h-40.323V366.093h-30.001v115.905H60.027V336.055h110.648V481.999z
			 M170.675,306.054H90.053V195.75H60.051v110.304H30.002V165.438l68.353-34.291h72.32V306.054z M311.324,481.999h-40.323V364.31
			h-30.002v117.688h-40.323V336.055h110.648V481.999z M311.324,306.054H200.677V131.148h110.648V306.054z M451.974,481.999h-0.001
			H411.65V364.31h-30.001v117.688h-40.323V336.055h110.648V481.999z M481.998,306.054h-30.049V195.75h-30.001v110.304h-80.623
			V131.148h72.319l68.354,34.292V306.054z"/>
	</g>
</g>
<g>
</g>
<g>
</g>
<g>
</g>
<g>
</g>
<g>
</g>
<g>
</g>
<g>
</g>
<g>
</g>
<g>
</g>
<g>
</g>
<g>
</g>
<g>
</g>
<g>
</g>
<g>
</g>
<g>
</g>
</svg>
