<?xml version="1.0" encoding="iso-8859-1"?>
<!-- Generator: Adobe Illustrator 18.0.0, SVG Export Plug-In . SVG Version: 6.00 Build 0)  -->
<!DOCTYPE svg PUBLIC "-//W3C//DTD SVG 1.1//EN" "http://www.w3.org/Graphics/SVG/1.1/DTD/svg11.dtd">
<svg version="1.1" id="Capa_1" xmlns="http://www.w3.org/2000/svg" xmlns:xlink="http://www.w3.org/1999/xlink" x="0px" y="0px"
	 viewBox="0 0 253.238 253.238" style="enable-background:new 0 0 253.238 253.238;" xml:space="preserve">
<path d="M63.329,214.247c28.71,0,53.547-19.417,61.022-46.405h4.535c7.475,26.988,32.313,46.405,61.022,46.405
	c34.92,0,63.329-28.409,63.329-63.329c0-33.834-26.454-61.617-60.226-63.251l-0.242-0.012h-54.505
	c4.901-16.551,20.235-28.664,38.354-28.664v-20c-29.208,0-53.595,20.983-58.912,48.664H60.709l-0.483,0.012
	C26.455,89.301,0,117.084,0,150.918C0,185.838,28.41,214.247,63.329,214.247z M60.964,107.655h131.311
	c22.99,1.231,40.964,20.19,40.964,43.263c0,23.892-19.438,43.329-43.329,43.329c-21.698,0-40.162-16.204-42.95-37.692l-1.13-8.713
	h-38.42l-1.13,8.713c-2.788,21.488-21.252,37.692-42.949,37.692C39.438,194.247,20,174.809,20,150.918
	C20,127.846,37.974,108.887,60.964,107.655z M164.82,161.431c0-5.419,4.391-9.81,9.809-9.81c5.418,0,9.809,4.391,9.809,9.81
	c0,5.417-4.391,9.81-9.809,9.81C169.211,171.24,164.82,166.848,164.82,161.431z M164.82,134.616c0-5.417,4.391-9.811,9.809-9.811
	c5.418,0,9.809,4.394,9.809,9.811c0,5.418-4.391,9.811-9.809,9.811C169.211,144.427,164.82,140.034,164.82,134.616z
	 M195.202,161.431c0-5.419,4.391-9.81,9.809-9.81s9.809,4.391,9.809,9.81c0,5.417-4.391,9.81-9.809,9.81
	S195.202,166.848,195.202,161.431z M195.202,134.616c0-5.417,4.391-9.811,9.809-9.811s9.809,4.394,9.809,9.811
	c0,5.418-4.391,9.811-9.809,9.811S195.202,140.034,195.202,134.616z M53.694,158.431H38.1v-20h15.594v-13.625h20v13.625h15.594v20
	H73.694v13.625h-20V158.431z"/>
<g>
</g>
<g>
</g>
<g>
</g>
<g>
</g>
<g>
</g>
<g>
</g>
<g>
</g>
<g>
</g>
<g>
</g>
<g>
</g>
<g>
</g>
<g>
</g>
<g>
</g>
<g>
</g>
<g>
</g>
</svg>
