<?xml version="1.0" encoding="iso-8859-1"?>
<!-- Generator: Adobe Illustrator 19.0.0, SVG Export Plug-In . SVG Version: 6.00 Build 0)  -->
<svg version="1.1" id="Capa_1" xmlns="http://www.w3.org/2000/svg" xmlns:xlink="http://www.w3.org/1999/xlink" x="0px" y="0px"
	 viewBox="0 0 512 512" style="enable-background:new 0 0 512 512;" xml:space="preserve">
<g>
	<g>
		<path d="M271,317.278v-32.627c14.953-5.3,26.291-18.286,29.252-34.187c7.439,5.123,16.236,7.889,25.463,7.889
			c12.026,0,23.333-4.684,31.836-13.187c8.504-8.504,13.188-19.811,13.188-31.837c0-9.227-2.766-18.025-7.889-25.463
			c20.894-3.891,36.766-22.247,36.766-44.252s-15.873-40.361-36.767-44.252c5.124-7.439,7.89-16.236,7.89-25.463
			c0-12.026-4.684-23.333-13.187-31.836c-8.504-8.504-19.811-13.188-31.837-13.188c-9.227,0-18.024,2.766-25.463,7.889
			C296.361,15.872,278.005,0,256,0s-40.361,15.872-44.252,36.766c-7.439-5.123-16.236-7.889-25.462-7.889
			c-12.027,0-23.334,4.684-31.837,13.187c-8.504,8.504-13.188,19.811-13.188,31.837c0,9.227,2.766,18.024,7.89,25.463
			c-20.894,3.891-36.767,22.247-36.767,44.252c0,22.005,15.872,40.361,36.766,44.252c-5.123,7.439-7.889,16.236-7.889,25.462
			c0,12.027,4.684,23.334,13.187,31.837c8.504,8.504,19.811,13.188,31.838,13.188c9.226,0,18.024-2.766,25.462-7.889
			c2.961,15.901,14.299,28.887,29.252,34.187v32.627H82.349v30h32.523L144.896,512h222.207l30.025-164.722h32.523v-30H271z
			 M336.337,223.953c-2.837,2.838-6.609,4.4-10.622,4.4c-4.014,0-7.786-1.563-10.624-4.4l-11.842-11.841
			c8.306-5.731,15.522-12.928,21.281-21.214l11.808,11.809c2.838,2.837,4.4,6.609,4.4,10.623
			C340.738,217.343,339.176,221.115,336.337,223.953z M369.615,143.615c0,8.284-6.74,15.024-15.024,15.024H338
			c0.915-4.939,1.417-10.022,1.417-15.223c0-5.062-0.478-10.011-1.346-14.826h16.52
			C362.875,128.591,369.615,135.331,369.615,143.615z M315.091,63.277c2.838-2.838,6.61-4.4,10.624-4.4
			c4.013,0,7.785,1.563,10.623,4.401c2.838,2.837,4.4,6.609,4.4,10.622s-1.563,7.786-4.4,10.624l-11.644,11.644
			c-5.731-8.307-12.927-15.522-21.214-21.281L315.091,63.277z M240.976,45.024C240.976,36.74,247.716,30,256,30
			s15.024,6.74,15.024,15.024v16.357C266.147,60.49,261.131,60,256,60c-5.131,0-10.147,0.49-15.024,1.382V45.024z M175.663,63.277
			c2.837-2.838,6.609-4.4,10.623-4.4c4.013,0,7.785,1.563,10.623,4.4l11.61,11.61c-8.286,5.759-15.482,12.974-21.214,21.281
			l-11.644-11.644c-2.838-2.838-4.4-6.611-4.4-10.624S172.824,66.115,175.663,63.277z M142.385,143.615
			c0-8.284,6.74-15.024,15.024-15.024h16.52c-0.868,4.815-1.346,9.765-1.346,14.826c0,5.2,0.502,10.283,1.417,15.223h-16.591
			C149.125,158.64,142.385,151.899,142.385,143.615z M196.908,223.955c-2.837,2.836-6.609,4.399-10.622,4.399
			c-4.014,0-7.786-1.563-10.624-4.401c-2.838-2.837-4.4-6.609-4.4-10.623c0-4.013,1.563-7.785,4.4-10.623l11.808-11.808
			c5.759,8.286,12.974,15.482,21.28,21.214L196.908,223.955z M202.583,143.417C202.583,113.963,226.546,90,256,90
			s53.417,23.963,53.417,53.417c0,29.455-23.963,53.418-53.417,53.418S202.583,172.872,202.583,143.417z M240.976,242.206v-16.753
			c4.878,0.891,9.893,1.382,15.024,1.382s10.147-0.49,15.024-1.382v16.753c0,8.284-6.74,15.024-15.024,15.024
			S240.976,250.49,240.976,242.206z M342.078,482H169.922l-24.556-134.722h221.268L342.078,482z"/>
	</g>
</g>
<g>
</g>
<g>
</g>
<g>
</g>
<g>
</g>
<g>
</g>
<g>
</g>
<g>
</g>
<g>
</g>
<g>
</g>
<g>
</g>
<g>
</g>
<g>
</g>
<g>
</g>
<g>
</g>
<g>
</g>
</svg>
