<?xml version="1.0" encoding="iso-8859-1"?>
<!-- Generator: Adobe Illustrator 19.0.0, SVG Export Plug-In . SVG Version: 6.00 Build 0)  -->
<svg version="1.1" id="Layer_1" xmlns="http://www.w3.org/2000/svg" xmlns:xlink="http://www.w3.org/1999/xlink" x="0px" y="0px"
	 viewBox="0 0 511.999 511.999" style="enable-background:new 0 0 511.999 511.999;" xml:space="preserve">
<g>
	<g>
		<path d="M189.552,68.644v304.735c-18.475-11.915-41.868-18.439-66.448-18.439c-26.335,0-51.313,7.482-70.333,21.069
			c-20.565,14.689-32.359,35.633-32.359,57.46c0,21.828,11.795,42.772,32.359,57.46c19.02,13.586,43.998,21.069,70.333,21.069
			s51.313-7.482,70.333-21.069c20.564-14.689,32.359-35.633,32.359-57.46v-215.08l229.547-52.17v134.671
			c-18.475-11.915-41.868-18.439-66.448-18.439c-26.335,0-51.313,7.482-70.333,21.068c-20.565,14.689-32.359,35.633-32.359,57.462
			c0,21.829,11.795,42.772,32.359,57.46c19.02,13.586,43.998,21.069,70.333,21.069s51.313-7.482,70.333-21.069
			c20.565-14.689,32.359-35.633,32.359-57.46V0L189.552,68.644z M123.104,475.756c-36.018,0-66.448-19.364-66.448-42.285
			c0-22.921,30.429-42.285,66.448-42.285c36.018,0,66.448,19.364,66.448,42.285C189.552,456.392,159.122,475.756,123.104,475.756z
			 M388.895,403.267c-36.019,0-66.448-19.364-66.448-42.285c0-22.921,30.428-42.285,66.448-42.285s66.448,19.364,66.448,42.285
			C455.342,383.903,424.913,403.267,388.895,403.267z M455.342,129.051L225.796,181.22V97.575l229.547-52.17V129.051z"/>
	</g>
</g>
<g>
</g>
<g>
</g>
<g>
</g>
<g>
</g>
<g>
</g>
<g>
</g>
<g>
</g>
<g>
</g>
<g>
</g>
<g>
</g>
<g>
</g>
<g>
</g>
<g>
</g>
<g>
</g>
<g>
</g>
</svg>
