<?xml version="1.0" encoding="UTF-8" standalone="no"?>
<!-- Created with Inkscape (http://www.inkscape.org/) -->

<svg
   xmlns:dc="http://purl.org/dc/elements/1.1/"
   xmlns:cc="http://creativecommons.org/ns#"
   xmlns:rdf="http://www.w3.org/1999/02/22-rdf-syntax-ns#"
   xmlns:svg="http://www.w3.org/2000/svg"
   xmlns="http://www.w3.org/2000/svg"
   xmlns:sodipodi="http://sodipodi.sourceforge.net/DTD/sodipodi-0.dtd"
   xmlns:inkscape="http://www.inkscape.org/namespaces/inkscape"
   width="9.8777809mm"
   height="12.7mm"
   viewBox="0 0 9.8777809 12.7"
   version="1.1"
   id="svg8"
   inkscape:version="0.92.2 (5c3e80d, 2017-08-06)"
   sodipodi:docname="Very Happy.svg">
  <defs
     id="defs2" />
  <sodipodi:namedview
     id="base"
     pagecolor="#ffffff"
     bordercolor="#666666"
     borderopacity="1.0"
     inkscape:pageopacity="0.0"
     inkscape:pageshadow="2"
     inkscape:zoom="3.959798"
     inkscape:cx="84.577828"
     inkscape:cy="21.705679"
     inkscape:document-units="mm"
     inkscape:current-layer="layer1"
     showgrid="false"
     inkscape:window-width="1920"
     inkscape:window-height="1057"
     inkscape:window-x="-8"
     inkscape:window-y="-8"
     inkscape:window-maximized="1" />
  <metadata
     id="metadata5">
    <rdf:RDF>
      <cc:Work
         rdf:about="">
        <dc:format>image/svg+xml</dc:format>
        <dc:type
           rdf:resource="http://purl.org/dc/dcmitype/StillImage" />
        <dc:title></dc:title>
      </cc:Work>
    </rdf:RDF>
  </metadata>
  <g
     inkscape:label="Layer 1"
     inkscape:groupmode="layer"
     id="layer1"
     transform="translate(-84.84124,-189.57152)">
    <path
       style="fill:#000000;stroke-width:0.35277775"
       d="m 86.500336,200.93373 c -1.222618,-1.25207 -1.306318,-1.47811 -1.306318,-3.52778 v -2.18998 h 4.409723 4.40972 v 2.22146 c 0,2.10657 -0.0692,2.28901 -1.33779,3.52777 -1.18218,1.15437 -1.54316,1.30632 -3.1034,1.30632 -1.57892,0 -1.90375,-0.14146 -3.071935,-1.33779 z m 5.369395,-0.63385 c 0.94069,-0.79154 1.0854,-1.14428 1.0854,-2.64583 v -1.73253 h -3.35139 -3.35139 v 1.73253 c 0,1.50155 0.144703,1.85429 1.0854,2.64583 0.69451,0.58439 1.51057,0.91331 2.26599,0.91331 0.75542,0 1.57148,-0.32892 2.26599,-0.91331 z m -6.322935,-7.55336 c -0.388056,-0.38805 -0.705556,-0.94368 -0.705556,-1.23472 0,-0.68378 1.2565,-1.94028 1.940278,-1.94028 0.683773,0 1.940273,1.2565 1.940273,1.94028 0,0.29104 -0.3175,0.84667 -0.70555,1.23472 -0.38806,0.38806 -0.94368,0.70556 -1.234723,0.70556 -0.291042,0 -0.846667,-0.3175 -1.234722,-0.70556 z m 5.997225,0 c -0.38806,-0.38805 -0.70556,-0.94368 -0.70556,-1.23472 0,-0.68378 1.2565,-1.94028 1.94028,-1.94028 0.68378,0 1.94028,1.2565 1.94028,1.94028 0,0.68378 -1.2565,1.94028 -1.94028,1.94028 -0.29104,0 -0.84667,-0.3175 -1.23472,-0.70556 z"
       id="path21"
       inkscape:connector-curvature="0" />
  </g>
</svg>
