<?xml version="1.0" encoding="UTF-8" standalone="no"?>
<!-- Created with Inkscape (http://www.inkscape.org/) -->

<svg
   xmlns:dc="http://purl.org/dc/elements/1.1/"
   xmlns:cc="http://creativecommons.org/ns#"
   xmlns:rdf="http://www.w3.org/1999/02/22-rdf-syntax-ns#"
   xmlns:svg="http://www.w3.org/2000/svg"
   xmlns="http://www.w3.org/2000/svg"
   xmlns:sodipodi="http://sodipodi.sourceforge.net/DTD/sodipodi-0.dtd"
   xmlns:inkscape="http://www.inkscape.org/namespaces/inkscape"
   width="11.249229mm"
   height="10.433622mm"
   viewBox="0 0 11.249229 10.433622"
   version="1.1"
   id="svg29"
   inkscape:version="0.92.2 (5c3e80d, 2017-08-06)"
   sodipodi:docname="Very Sad.svg">
  <defs
     id="defs23" />
  <sodipodi:namedview
     id="base"
     pagecolor="#ffffff"
     bordercolor="#666666"
     borderopacity="1.0"
     inkscape:pageopacity="0.0"
     inkscape:pageshadow="2"
     inkscape:zoom="7.9195959"
     inkscape:cx="59.469408"
     inkscape:cy="32.216678"
     inkscape:document-units="mm"
     inkscape:current-layer="layer1"
     showgrid="false"
     inkscape:window-width="1920"
     inkscape:window-height="1057"
     inkscape:window-x="-8"
     inkscape:window-y="-8"
     inkscape:window-maximized="1" />
  <metadata
     id="metadata26">
    <rdf:RDF>
      <cc:Work
         rdf:about="">
        <dc:format>image/svg+xml</dc:format>
        <dc:type
           rdf:resource="http://purl.org/dc/dcmitype/StillImage" />
        <dc:title></dc:title>
      </cc:Work>
    </rdf:RDF>
  </metadata>
  <g
     inkscape:label="Layer 1"
     inkscape:groupmode="layer"
     id="layer1"
     transform="translate(-170.18156,-245.64563)">
    <path
       style="fill:#000000;stroke-width:0.35277775"
       d="m 170.21429,255.68741 c 0.18485,-0.95986 2.2115,-2.20664 4.03023,-2.47937 3.1334,-0.46988 6.83247,0.81219 7.15354,2.47937 0.11099,0.57633 -0.0238,0.54005 -0.97865,-0.26343 -2.56034,-2.15439 -6.66613,-2.15439 -9.22647,0 -0.95489,0.80348 -1.08964,0.83976 -0.97865,0.26343 z m 9.01426,-3.56199 c -0.42921,-0.34595 -0.10853,-1.91905 0.40017,-2.34124 0.66455,0.3003 0.95918,1.86181 0.68316,2.29159 -0.53293,0.43172 -0.5979,0.44092 -1.08333,0.0496 z m -7.65571,-3.30479 c -0.38805,-0.38805 -0.70555,-0.94368 -0.70555,-1.23472 0,-0.68378 1.2565,-1.94028 1.94027,-1.94028 0.68378,0 1.94028,1.2565 1.94028,1.94028 0,0.29104 -0.3175,0.84667 -0.70556,1.23472 -0.38805,0.38806 -0.94368,0.70556 -1.23472,0.70556 -0.29104,0 -0.84666,-0.3175 -1.23472,-0.70556 z m 5.99722,0 c -0.38805,-0.38805 -0.70555,-0.94368 -0.70555,-1.23472 0,-0.68378 1.2565,-1.94028 1.94027,-1.94028 0.68378,0 1.94028,1.2565 1.94028,1.94028 0,0.68378 -1.2565,1.94028 -1.94028,1.94028 -0.29104,0 -0.84666,-0.3175 -1.23472,-0.70556 z"
       id="path42"
       inkscape:connector-curvature="0"
       sodipodi:nodetypes="sccccssccssssscssssssss" />
  </g>
</svg>
