<?xml version="1.0" encoding="UTF-8" standalone="no"?>
<!-- Created with Inkscape (http://www.inkscape.org/) -->

<svg
   xmlns:dc="http://purl.org/dc/elements/1.1/"
   xmlns:cc="http://creativecommons.org/ns#"
   xmlns:rdf="http://www.w3.org/1999/02/22-rdf-syntax-ns#"
   xmlns:svg="http://www.w3.org/2000/svg"
   xmlns="http://www.w3.org/2000/svg"
   xmlns:sodipodi="http://sodipodi.sourceforge.net/DTD/sodipodi-0.dtd"
   xmlns:inkscape="http://www.inkscape.org/namespaces/inkscape"
   width="11.239017mm"
   height="11.605576mm"
   viewBox="0 0 11.239017 11.605576"
   version="1.1"
   id="svg50"
   inkscape:version="0.92.2 (5c3e80d, 2017-08-06)"
   sodipodi:docname="Sad.svg">
  <defs
     id="defs44" />
  <sodipodi:namedview
     id="base"
     pagecolor="#ffffff"
     bordercolor="#666666"
     borderopacity="1.0"
     inkscape:pageopacity="0.0"
     inkscape:pageshadow="2"
     inkscape:zoom="3.959798"
     inkscape:cx="112.85662"
     inkscape:cy="-2.4039113"
     inkscape:document-units="mm"
     inkscape:current-layer="layer1"
     showgrid="false"
     inkscape:window-width="1920"
     inkscape:window-height="1057"
     inkscape:window-x="-8"
     inkscape:window-y="-8"
     inkscape:window-maximized="1" />
  <metadata
     id="metadata47">
    <rdf:RDF>
      <cc:Work
         rdf:about="">
        <dc:format>image/svg+xml</dc:format>
        <dc:type
           rdf:resource="http://purl.org/dc/dcmitype/StillImage" />
        <dc:title></dc:title>
      </cc:Work>
    </rdf:RDF>
  </metadata>
  <g
     inkscape:label="Layer 1"
     inkscape:groupmode="layer"
     id="layer1"
     transform="translate(-174.58727,-241.79906)">
    <path
       style="fill:#000000;stroke-width:0.35277775"
       d="m 174.61471,252.83577 c 0.17401,-0.90355 2.24785,-2.15052 4.01802,-2.41597 2.90666,-0.43588 6.51143,0.66116 7.08514,2.15622 0.36982,0.96373 -0.20598,1.00942 -1.73507,0.13768 -2.06032,-1.17459 -5.49769,-1.20548 -7.42455,-0.0667 -1.60904,0.95092 -2.09949,0.99857 -1.94354,0.18879 z m 1.34634,-7.86171 c -0.38805,-0.38805 -0.70555,-0.94368 -0.70555,-1.23472 0,-0.68378 1.2565,-1.94028 1.94027,-1.94028 0.68378,0 1.94028,1.2565 1.94028,1.94028 0,0.29104 -0.3175,0.84667 -0.70556,1.23472 -0.38805,0.38806 -0.94368,0.70556 -1.23472,0.70556 -0.29104,0 -0.84666,-0.3175 -1.23472,-0.70556 z m 5.99722,0 c -0.38805,-0.38805 -0.70555,-0.94368 -0.70555,-1.23472 0,-0.68378 1.2565,-1.94028 1.94027,-1.94028 0.68378,0 1.94028,1.2565 1.94028,1.94028 0,0.68378 -1.2565,1.94028 -1.94028,1.94028 -0.29104,0 -0.84666,-0.3175 -1.23472,-0.70556 z"
       id="path63"
       inkscape:connector-curvature="0" />
  </g>
</svg>
