<?xml version="1.0" encoding="UTF-8" standalone="no"?>
<!-- Created with Inkscape (http://www.inkscape.org/) -->

<svg
   xmlns:dc="http://purl.org/dc/elements/1.1/"
   xmlns:cc="http://creativecommons.org/ns#"
   xmlns:rdf="http://www.w3.org/1999/02/22-rdf-syntax-ns#"
   xmlns:svg="http://www.w3.org/2000/svg"
   xmlns="http://www.w3.org/2000/svg"
   xmlns:sodipodi="http://sodipodi.sourceforge.net/DTD/sodipodi-0.dtd"
   xmlns:inkscape="http://www.inkscape.org/namespaces/inkscape"
   width="11.300869mm"
   height="11.56798mm"
   viewBox="0 0 11.300869 11.56798"
   version="1.1"
   id="svg8"
   inkscape:version="0.92.2 (5c3e80d, 2017-08-06)"
   sodipodi:docname="Happy.svg">
  <defs
     id="defs2" />
  <sodipodi:namedview
     id="base"
     pagecolor="#ffffff"
     bordercolor="#666666"
     borderopacity="1.0"
     inkscape:pageopacity="0.0"
     inkscape:pageshadow="2"
     inkscape:zoom="11.2"
     inkscape:cx="28.5928"
     inkscape:cy="22.567022"
     inkscape:document-units="mm"
     inkscape:current-layer="layer1"
     showgrid="false"
     inkscape:window-width="1920"
     inkscape:window-height="1057"
     inkscape:window-x="-8"
     inkscape:window-y="-8"
     inkscape:window-maximized="1" />
  <metadata
     id="metadata5">
    <rdf:RDF>
      <cc:Work
         rdf:about="">
        <dc:format>image/svg+xml</dc:format>
        <dc:type
           rdf:resource="http://purl.org/dc/dcmitype/StillImage" />
        <dc:title></dc:title>
      </cc:Work>
    </rdf:RDF>
  </metadata>
  <g
     inkscape:label="Layer 1"
     inkscape:groupmode="layer"
     id="layer1"
     transform="translate(-182.30421,-247.11028)">
    <path
       style="fill:#000000;stroke-width:0.35277775"
       d="m 185.01488,258.26248 c -1.54981,-0.57765 -2.71067,-1.52454 -2.71067,-2.21104 0,-0.66749 0.46327,-0.59385 2.00831,0.31926 1.92686,1.13876 5.36423,1.10786 7.42455,-0.0667 1.55676,-0.88752 2.27902,-0.77229 1.62992,0.26004 -1.12196,1.78435 -5.65075,2.70532 -8.35211,1.69847 z m -1.29956,-7.9772 c -0.38805,-0.38805 -0.70555,-0.94368 -0.70555,-1.23472 0,-0.68378 1.2565,-1.94028 1.94027,-1.94028 0.68378,0 1.94028,1.2565 1.94028,1.94028 0,0.29104 -0.3175,0.84667 -0.70556,1.23472 -0.38805,0.38806 -0.94368,0.70556 -1.23472,0.70556 -0.29104,0 -0.84666,-0.3175 -1.23472,-0.70556 z m 5.99722,0 c -0.38805,-0.38805 -0.70555,-0.94368 -0.70555,-1.23472 0,-0.68378 1.2565,-1.94028 1.94027,-1.94028 0.68378,0 1.94028,1.2565 1.94028,1.94028 0,0.68378 -1.2565,1.94028 -1.94028,1.94028 -0.29104,0 -0.84666,-0.3175 -1.23472,-0.70556 z"
       id="path21"
       inkscape:connector-curvature="0" />
  </g>
</svg>
