<?xml version="1.0" encoding="UTF-8" standalone="no"?>
<!-- Created with Inkscape (http://www.inkscape.org/) -->

<svg
   xmlns:dc="http://purl.org/dc/elements/1.1/"
   xmlns:cc="http://creativecommons.org/ns#"
   xmlns:rdf="http://www.w3.org/1999/02/22-rdf-syntax-ns#"
   xmlns:svg="http://www.w3.org/2000/svg"
   xmlns="http://www.w3.org/2000/svg"
   xmlns:sodipodi="http://sodipodi.sourceforge.net/DTD/sodipodi-0.dtd"
   xmlns:inkscape="http://www.inkscape.org/namespaces/inkscape"
   width="9.8777704mm"
   height="9.87778mm"
   viewBox="0 0 9.8777704 9.87778"
   version="1.1"
   id="svg29"
   inkscape:version="0.92.2 (5c3e80d, 2017-08-06)"
   sodipodi:docname="Neutral.svg">
  <defs
     id="defs23" />
  <sodipodi:namedview
     id="base"
     pagecolor="#ffffff"
     bordercolor="#666666"
     borderopacity="1.0"
     inkscape:pageopacity="0.0"
     inkscape:pageshadow="2"
     inkscape:zoom="15.839192"
     inkscape:cx="29.945514"
     inkscape:cy="16.992499"
     inkscape:document-units="mm"
     inkscape:current-layer="layer1"
     showgrid="false"
     inkscape:window-width="1920"
     inkscape:window-height="1057"
     inkscape:window-x="-8"
     inkscape:window-y="-8"
     inkscape:window-maximized="1" />
  <metadata
     id="metadata26">
    <rdf:RDF>
      <cc:Work
         rdf:about="">
        <dc:format>image/svg+xml</dc:format>
        <dc:type
           rdf:resource="http://purl.org/dc/dcmitype/StillImage" />
        <dc:title></dc:title>
      </cc:Work>
    </rdf:RDF>
  </metadata>
  <g
     inkscape:label="Layer 1"
     inkscape:groupmode="layer"
     id="layer1"
     transform="translate(-171.44169,-252.38238)">
    <path
       style="fill:#000000;stroke-width:0.35277775"
       d="m 171.79446,261.5546 c 0,-0.66937 0.23519,-0.70555 4.58611,-0.70555 4.35093,0 4.58611,0.0362 4.58611,0.70555 0,0.66938 -0.23518,0.70556 -4.58611,0.70556 -4.35092,0 -4.58611,-0.0362 -4.58611,-0.70556 z m 0.35278,-5.99722 c -0.38805,-0.38805 -0.70555,-0.94368 -0.70555,-1.23472 0,-0.68378 1.2565,-1.94028 1.94027,-1.94028 0.68378,0 1.94028,1.2565 1.94028,1.94028 0,0.29104 -0.3175,0.84667 -0.70556,1.23472 -0.38805,0.38806 -0.94368,0.70556 -1.23472,0.70556 -0.29104,0 -0.84666,-0.3175 -1.23472,-0.70556 z m 5.99722,0 c -0.38805,-0.38805 -0.70555,-0.94368 -0.70555,-1.23472 0,-0.68378 1.2565,-1.94028 1.94027,-1.94028 0.68378,0 1.94028,1.2565 1.94028,1.94028 0,0.68378 -1.2565,1.94028 -1.94028,1.94028 -0.29104,0 -0.84666,-0.3175 -1.23472,-0.70556 z"
       id="path42"
       inkscape:connector-curvature="0" />
  </g>
</svg>
